0
SECTION
2
HEADER
9
$INSUNITS
70
4
0
ENDSEC
0
SECTION
2
ENTITIES
0
LWPOLYLINE
8
0
90
96
70
1
10
-51.438100
20
-23.031600
10
-51.406110
20
-23.063589
10
-51.313797
20
-23.155901
10
-51.166645
20
-23.303051
10
-50.970137
20
-23.499556
10
-50.729758
20
-23.739931
10
-50.450991
20
-24.018694
10
-50.139320
20
-24.330359
10
-49.800230
20
-24.669444
10
-49.439204
20
-25.030465
10
-49.061726
20
-25.407937
10
-48.673280
20
-25.796376
10
-48.279350
20
-26.190300
10
-47.885420
20
-26.584224
10
-47.496974
20
-26.972663
10
-47.119496
20
-27.350135
10
-46.758470
20
-27.711156
10
-46.419380
20
-28.050241
10
-46.107709
20
-28.361906
10
-45.828942
20
-28.640669
10
-45.588563
20
-28.881044
10
-45.392055
20
-29.077549
10
-45.244903
20
-29.224699
10
-45.152590
20
-29.317011
10
-45.120600
20
-29.349000
10
-45.081075
20
-29.309475
10
-44.967018
20
-29.195416
10
-44.785203
20
-29.013599
10
-44.542407
20
-28.770800
10
-44.245406
20
-28.473795
10
-43.900975
20
-28.129359
10
-43.515890
20
-27.744269
10
-43.096926
20
-27.325300
10
-42.650859
20
-26.879228
10
-42.184466
20
-26.412828
10
-41.704521
20
-25.932877
10
-41.217800
20
-25.446150
10
-40.731079
20
-24.959423
10
-40.251134
20
-24.479472
10
-39.784741
20
-24.013072
10
-39.338674
20
-23.567000
10
-38.919710
20
-23.148031
10
-38.534625
20
-22.762941
10
-38.190194
20
-22.418505
10
-37.893193
20
-22.121500
10
-37.650397
20
-21.878701
10
-37.468582
20
-21.696884
10
-37.354525
20
-21.582825
10
-37.315000
20
-21.543300
10
-37.346989
20
-21.511311
10
-37.439301
20
-21.418999
10
-37.586451
20
-21.271849
10
-37.782956
20
-21.075344
10
-38.023331
20
-20.834969
10
-38.302094
20
-20.556206
10
-38.613759
20
-20.244541
10
-38.952844
20
-19.905456
10
-39.313865
20
-19.544435
10
-39.691337
20
-19.166963
10
-40.079776
20
-18.778524
10
-40.473700
20
-18.384600
10
-40.867624
20
-17.990676
10
-41.256063
20
-17.602237
10
-41.633535
20
-17.224765
10
-41.994556
20
-16.863744
10
-42.333641
20
-16.524659
10
-42.645306
20
-16.212994
10
-42.924069
20
-15.934231
10
-43.164444
20
-15.693856
10
-43.360949
20
-15.497351
10
-43.508099
20
-15.350201
10
-43.600411
20
-15.257889
10
-43.632400
20
-15.225900
10
-43.671925
20
-15.265425
10
-43.785984
20
-15.379484
10
-43.967801
20
-15.561301
10
-44.210600
20
-15.804100
10
-44.507605
20
-16.101105
10
-44.852041
20
-16.445541
10
-45.237131
20
-16.830631
10
-45.656100
20
-17.249600
10
-46.102172
20
-17.695672
10
-46.568572
20
-18.162072
10
-47.048523
20
-18.642023
10
-47.535250
20
-19.128750
10
-48.021977
20
-19.615477
10
-48.501928
20
-20.095428
10
-48.968328
20
-20.561828
10
-49.414400
20
-21.007900
10
-49.833369
20
-21.426869
10
-50.218459
20
-21.811959
10
-50.562895
20
-22.156395
10
-50.859900
20
-22.453400
10
-51.102699
20
-22.696199
10
-51.284516
20
-22.878016
10
-51.398575
20
-22.992075
0
LWPOLYLINE
8
0
90
96
70
1
10
-51.469400
20
23.486900
10
-51.429247
20
23.446747
10
-51.313378
20
23.330878
10
-51.128675
20
23.146175
10
-50.882022
20
22.899522
10
-50.580303
20
22.597803
10
-50.230400
20
22.247900
10
-49.839197
20
21.856697
10
-49.413578
20
21.431078
10
-48.960425
20
20.977925
10
-48.486622
20
20.504122
10
-47.999053
20
20.016553
10
-47.504600
20
19.522100
10
-47.010147
20
19.027647
10
-46.522578
20
18.540078
10
-46.048775
20
18.066275
10
-45.595622
20
17.613122
10
-45.170003
20
17.187503
10
-44.778800
20
16.796300
10
-44.428897
20
16.446397
10
-44.127178
20
16.144678
10
-43.880525
20
15.898025
10
-43.695822
20
15.713322
10
-43.579953
20
15.597453
10
-43.539800
20
15.557300
10
-43.507550
20
15.589550
10
-43.414486
20
15.682616
10
-43.266136
20
15.830968
10
-43.068030
20
16.029078
10
-42.825694
20
16.271417
10
-42.544659
20
16.552456
10
-42.230453
20
16.866668
10
-41.888604
20
17.208522
10
-41.524640
20
17.572491
10
-41.144091
20
17.953047
10
-40.752485
20
18.344659
10
-40.355350
20
18.741800
10
-39.958215
20
19.138941
10
-39.566609
20
19.530553
10
-39.186060
20
19.911109
10
-38.822096
20
20.275078
10
-38.480247
20
20.616932
10
-38.166041
20
20.931144
10
-37.885006
20
21.212183
10
-37.642670
20
21.454522
10
-37.444564
20
21.652632
10
-37.296214
20
21.800984
10
-37.203150
20
21.894050
10
-37.170900
20
21.926300
10
-37.211052
20
21.966452
10
-37.326920
20
22.082320
10
-37.511621
20
22.267021
10
-37.758270
20
22.513670
10
-38.059986
20
22.815386
10
-38.409884
20
23.165284
10
-38.801082
20
23.556482
10
-39.226696
20
23.982096
10
-39.679843
20
24.435243
10
-40.153640
20
24.909040
10
-40.641203
20
25.396603
10
-41.135650
20
25.891050
10
-41.630097
20
26.385497
10
-42.117660
20
26.873060
10
-42.591457
20
27.346857
10
-43.044604
20
27.800004
10
-43.470218
20
28.225618
10
-43.861416
20
28.616816
10
-44.211314
20
28.966714
10
-44.513030
20
29.268430
10
-44.759679
20
29.515079
10
-44.944380
20
29.699780
10
-45.060248
20
29.815648
10
-45.100400
20
29.855800
10
-45.132650
20
29.823550
10
-45.225716
20
29.730486
10
-45.374068
20
29.582136
10
-45.572178
20
29.384030
10
-45.814517
20
29.141694
10
-46.095556
20
28.860659
10
-46.409768
20
28.546453
10
-46.751622
20
28.204604
10
-47.115591
20
27.840640
10
-47.496147
20
27.460091
10
-47.887759
20
27.068485
10
-48.284900
20
26.671350
10
-48.682041
20
26.274215
10
-49.073653
20
25.882609
10
-49.454209
20
25.502060
10
-49.818178
20
25.138096
10
-50.160032
20
24.796247
10
-50.474244
20
24.482041
10
-50.755283
20
24.201006
10
-50.997622
20
23.958670
10
-51.195732
20
23.760564
10
-51.344084
20
23.612214
10
-51.437150
20
23.519150
0
LWPOLYLINE
8
0
90
96
70
1
10
-43.663700
20
5.410300
10
-44.211262
20
5.957868
10
-45.690495
20
7.437118
10
-47.856224
20
9.602871
10
-50.463272
20
12.209947
10
-53.266461
20
15.013167
10
-56.020614
20
17.767351
10
-58.480555
20
20.227319
10
-60.401107
20
22.147893
10
-61.537094
20
23.283891
10
-61.655035
20
23.571965
10
-60.772481
20
24.454519
10
-59.115225
20
26.111775
10
-56.911120
20
28.315880
10
-54.388020
20
30.838980
10
-51.773778
20
33.453222
10
-49.296248
20
35.930752
10
-47.183285
20
38.043715
10
-45.662741
20
39.564259
10
-44.962470
20
40.264530
10
-44.683836
20
40.029036
10
-43.735204
20
39.080404
10
-42.254959
20
37.600159
10
-40.420307
20
35.765507
10
-38.408450
20
33.753650
10
-36.396593
20
31.741793
10
-34.561941
20
29.907141
10
-33.081696
20
28.426896
10
-32.133064
20
27.478264
10
-31.868750
20
27.228450
10
-31.633386
20
27.463810
10
-31.122323
20
27.974864
10
-30.412144
20
28.685030
10
-29.579434
20
29.517726
10
-28.700773
20
30.396371
10
-27.852746
20
31.244383
10
-27.111934
20
31.985181
10
-26.554922
20
32.542184
10
-26.258291
20
32.838810
10
-26.434455
20
33.072155
10
-27.580226
20
34.217926
10
-29.517321
20
36.155021
10
-31.998450
20
38.636150
10
-34.776327
20
41.414027
10
-37.603661
20
44.241361
10
-40.233164
20
46.870864
10
-42.417547
20
49.055247
10
-43.909522
20
50.547222
10
-44.461800
20
51.099500
10
-45.298228
20
50.263072
10
-47.557831
20
48.003469
10
-50.866090
20
44.695210
10
-54.848484
20
40.712816
10
-59.130494
20
36.430806
10
-63.337601
20
32.223699
10
-67.095283
20
28.466017
10
-70.029022
20
25.532278
10
-71.764298
20
23.797002
10
-71.930537
20
23.343037
10
-70.437958
20
21.850458
10
-67.635197
20
19.047697
10
-63.907602
20
15.320102
10
-59.640521
20
11.053021
10
-55.219301
20
6.631801
10
-51.029289
20
2.441789
10
-47.455833
20
-1.131667
10
-44.884281
20
-3.703219
10
-43.699980
20
-4.887520
10
-43.437542
20
-5.149956
10
-42.603697
20
-5.983794
10
-41.302568
20
-7.284912
10
-39.689915
20
-8.897551
10
-37.921500
20
-10.665950
10
-36.153085
20
-12.434349
10
-34.540432
20
-14.046988
10
-33.239303
20
-15.348106
10
-32.405458
20
-16.181944
10
-32.172865
20
-16.401265
10
-31.957476
20
-16.185876
10
-31.489787
20
-15.718187
10
-30.839881
20
-15.068281
10
-30.077843
20
-14.306243
10
-29.273754
20
-13.502154
10
-28.497698
20
-12.726098
10
-27.819759
20
-12.048159
10
-27.310020
20
-11.538420
10
-27.038564
20
-11.266964
10
-27.199402
20
-11.053800
10
-28.245830
20
-10.007385
10
-30.014970
20
-8.238266
10
-32.280975
20
-5.972288
10
-34.817998
20
-3.435296
10
-37.400190
20
-0.853135
10
-39.801704
20
1.548351
10
-41.796692
20
3.543315
10
-43.159307
20
4.905913
0
LWPOLYLINE
8
0
90
96
70
1
10
51.407300
20
23.361000
10
51.375163
20
23.393137
10
51.282427
20
23.485875
10
51.134599
20
23.633705
10
50.937189
20
23.831119
10
50.695706
20
24.072605
10
50.415659
20
24.352656
10
50.102558
20
24.665763
10
49.761911
20
25.006415
10
49.399228
20
25.369104
10
49.020017
20
25.748321
10
48.629788
20
26.138556
10
48.234050
20
26.534300
10
47.838312
20
26.930044
10
47.448083
20
27.320279
10
47.068872
20
27.699496
10
46.706189
20
28.062185
10
46.365542
20
28.402837
10
46.052441
20
28.715944
10
45.772394
20
28.995995
10
45.530911
20
29.237481
10
45.333501
20
29.434895
10
45.185673
20
29.582725
10
45.092937
20
29.675463
10
45.060800
20
29.707600
10
45.021277
20
29.668077
10
44.907225
20
29.554023
10
44.725420
20
29.372216
10
44.482637
20
29.129430
10
44.185651
20
28.832440
10
43.841237
20
28.488022
10
43.456172
20
28.102951
10
43.037230
20
27.684004
10
42.591186
20
27.237954
10
42.124816
20
26.771579
10
41.644896
20
26.291652
10
41.158200
20
25.804950
10
40.671504
20
25.318248
10
40.191584
20
24.838321
10
39.725214
20
24.371946
10
39.279170
20
23.925896
10
38.860228
20
23.506949
10
38.475162
20
23.121878
10
38.130749
20
22.777460
10
37.833763
20
22.480470
10
37.590980
20
22.237684
10
37.409175
20
22.055877
10
37.295123
20
21.941823
10
37.255600
20
21.902300
10
37.287737
20
21.870163
10
37.380473
20
21.777427
10
37.528301
20
21.629599
10
37.725711
20
21.432189
10
37.967194
20
21.190706
10
38.247241
20
20.910659
10
38.560342
20
20.597558
10
38.900989
20
20.256911
10
39.263672
20
19.894228
10
39.642883
20
19.515017
10
40.033112
20
19.124788
10
40.428850
20
18.729050
10
40.824588
20
18.333312
10
41.214817
20
17.943083
10
41.594028
20
17.563872
10
41.956711
20
17.201189
10
42.297358
20
16.860542
10
42.610459
20
16.547441
10
42.890506
20
16.267394
10
43.131989
20
16.025911
10
43.329399
20
15.828501
10
43.477227
20
15.680673
10
43.569963
20
15.587937
10
43.602100
20
15.555800
10
43.641623
20
15.595323
10
43.755675
20
15.709375
10
43.937480
20
15.891180
10
44.180263
20
16.133963
10
44.477249
20
16.430949
10
44.821663
20
16.775362
10
45.206728
20
17.160428
10
45.625670
20
17.579370
10
46.071714
20
18.025414
10
46.538084
20
18.491784
10
47.018004
20
18.971704
10
47.504700
20
19.458400
10
47.991396
20
19.945096
10
48.471316
20
20.425016
10
48.937686
20
20.891386
10
49.383730
20
21.337430
10
49.802672
20
21.756372
10
50.187738
20
22.141437
10
50.532151
20
22.485851
10
50.829137
20
22.782837
10
51.071920
20
23.025620
10
51.253725
20
23.207425
10
51.367777
20
23.321477
0
LWPOLYLINE
8
0
90
96
70
1
10
51.407400
20
-23.126100
10
51.367561
20
-23.086261
10
51.252596
20
-22.971296
10
51.069335
20
-22.788035
10
50.824607
20
-22.543307
10
50.525243
20
-22.243943
10
50.178072
20
-21.896772
10
49.789923
20
-21.508623
10
49.367626
20
-21.086326
10
48.918011
20
-20.636711
10
48.447906
20
-20.166606
10
47.964143
20
-19.682843
10
47.473550
20
-19.192250
10
46.982957
20
-18.701657
10
46.499194
20
-18.217894
10
46.029089
20
-17.747789
10
45.579474
20
-17.298174
10
45.157177
20
-16.875877
10
44.769028
20
-16.487728
10
44.421857
20
-16.140557
10
44.122493
20
-15.841193
10
43.877765
20
-15.596465
10
43.694504
20
-15.413204
10
43.579539
20
-15.298239
10
43.539700
20
-15.258400
10
43.510258
20
-15.287843
10
43.425296
20
-15.372806
10
43.289863
20
-15.508242
10
43.109004
20
-15.689104
10
42.887767
20
-15.910344
10
42.631200
20
-16.166916
10
42.344350
20
-16.453771
10
42.032263
20
-16.765863
10
41.699988
20
-17.098144
10
41.352570
20
-17.445567
10
40.995059
20
-17.803085
10
40.632500
20
-18.165650
10
40.269941
20
-18.528215
10
39.912430
20
-18.885733
10
39.565013
20
-19.233156
10
39.232737
20
-19.565437
10
38.920650
20
-19.877529
10
38.633800
20
-20.164384
10
38.377233
20
-20.420956
10
38.155996
20
-20.642196
10
37.975138
20
-20.823058
10
37.839704
20
-20.958494
10
37.754742
20
-21.043457
10
37.725300
20
-21.072900
10
37.765139
20
-21.112739
10
37.880102
20
-21.227704
10
38.063361
20
-21.410965
10
38.308085
20
-21.655693
10
38.607446
20
-21.955057
10
38.954612
20
-22.302228
10
39.342757
20
-22.690377
10
39.765048
20
-23.112674
10
40.214658
20
-23.562289
10
40.684756
20
-24.032394
10
41.168513
20
-24.516157
10
41.659100
20
-25.006750
10
42.149687
20
-25.497343
10
42.633444
20
-25.981106
10
43.103542
20
-26.451211
10
43.553152
20
-26.900826
10
43.975443
20
-27.323123
10
44.363587
20
-27.711272
10
44.710754
20
-28.058443
10
45.010115
20
-28.357807
10
45.254839
20
-28.602535
10
45.438098
20
-28.785796
10
45.553061
20
-28.900761
10
45.592900
20
-28.940600
10
45.622343
20
-28.911157
10
45.707306
20
-28.826194
10
45.842742
20
-28.690758
10
46.023604
20
-28.509896
10
46.244844
20
-28.288656
10
46.501416
20
-28.032084
10
46.788271
20
-27.745229
10
47.100363
20
-27.433137
10
47.432644
20
-27.100856
10
47.780067
20
-26.753433
10
48.137585
20
-26.395915
10
48.500150
20
-26.033350
10
48.862715
20
-25.670785
10
49.220233
20
-25.313267
10
49.567656
20
-24.965844
10
49.899937
20
-24.633563
10
50.212029
20
-24.321471
10
50.498884
20
-24.034616
10
50.755456
20
-23.778044
10
50.976696
20
-23.556804
10
51.157558
20
-23.375942
10
51.292994
20
-23.240506
10
51.377957
20
-23.155543
0
LWPOLYLINE
8
0
90
96
70
1
10
43.477600
20
-4.925500
10
44.025165
20
-5.473065
10
45.504407
20
-6.952307
10
47.670148
20
-9.118048
10
50.277209
20
-11.725109
10
53.080414
20
-14.528314
10
55.834582
20
-17.282482
10
58.294537
20
-19.742437
10
60.215100
20
-21.663000
10
61.351092
20
-22.798992
10
61.473298
20
-23.082802
10
60.634980
20
-23.921120
10
59.060787
20
-25.495312
10
56.967155
20
-27.588945
10
54.570516
20
-29.985584
10
52.087304
20
-32.468796
10
49.733952
20
-34.822148
10
47.726893
20
-36.829207
10
46.282561
20
-38.273539
10
45.617389
20
-38.938711
10
45.343494
20
-38.705794
10
44.408359
20
-37.770659
10
42.949177
20
-36.311477
10
41.140630
20
-34.502930
10
39.157400
20
-32.519700
10
37.174170
20
-30.536470
10
35.365623
20
-28.727923
10
33.906441
20
-27.268741
10
32.971306
20
-26.333606
10
32.710650
20
-26.087450
10
32.475294
20
-26.322810
10
31.964249
20
-26.833864
10
31.254096
20
-27.544030
10
30.421415
20
-28.376726
10
29.542786
20
-29.255371
10
28.694788
20
-30.103383
10
27.954003
20
-30.844181
10
27.397010
20
-31.401184
10
27.100390
20
-31.697810
10
27.274466
20
-31.929066
10
28.408548
20
-33.063148
10
30.325881
20
-34.980481
10
32.781699
20
-37.436299
10
35.531236
20
-40.185836
10
38.329726
20
-42.984326
10
40.932403
20
-45.587003
10
43.094502
20
-47.749102
10
44.571256
20
-49.225856
10
45.117900
20
-49.772500
10
45.928819
20
-48.961581
10
48.119511
20
-46.770889
10
51.326878
20
-43.563522
10
55.187822
20
-39.702578
10
59.339244
20
-35.551156
10
63.418046
20
-31.472354
10
67.061131
20
-27.829269
10
69.905400
20
-24.985000
10
71.587755
20
-23.302645
10
71.744537
20
-22.858137
10
70.251963
20
-21.365563
10
67.449213
20
-18.562813
10
63.721631
20
-14.835231
10
59.454565
20
-10.568165
10
55.033360
20
-6.146960
10
50.843363
20
-1.956963
10
47.269920
20
1.616480
10
44.698377
20
4.188023
10
43.514079
20
5.372321
10
43.254127
20
5.632275
10
42.429453
20
6.456956
10
41.142633
20
7.743788
10
39.547716
20
9.338719
10
37.798750
20
11.087700
10
36.049784
20
12.836681
10
34.454867
20
14.431612
10
33.168047
20
15.718444
10
32.343373
20
16.543125
10
32.113265
20
16.759965
10
31.897872
20
16.544572
10
31.430174
20
16.076874
10
30.780256
20
15.426956
10
30.018202
20
14.664902
10
29.214098
20
13.860798
10
28.438027
20
13.084727
10
27.760075
20
12.406775
10
27.250326
20
11.897026
10
26.978865
20
11.625565
10
27.138282
20
11.413818
10
28.176767
20
10.375333
10
29.932478
20
8.619622
10
32.181282
20
6.370818
10
34.699046
20
3.853054
10
37.261636
20
1.290464
10
39.644921
20
-1.092821
10
41.624765
20
-3.072665
10
42.977036
20
-4.424936
0
LWPOLYLINE
8
0
90
96
70
1
10
-0.328800
20
-74.862300
10
-0.289275
20
-74.822775
10
-0.175216
20
-74.708718
10
0.006601
20
-74.526903
10
0.249400
20
-74.284107
10
0.546405
20
-73.987106
10
0.890841
20
-73.642675
10
1.275931
20
-73.257590
10
1.694900
20
-72.838626
10
2.140972
20
-72.392559
10
2.607372
20
-71.926166
10
3.087323
20
-71.446221
10
3.574050
20
-70.959500
10
4.060777
20
-70.472779
10
4.540728
20
-69.992834
10
5.007128
20
-69.526441
10
5.453200
20
-69.080374
10
5.872169
20
-68.661410
10
6.257259
20
-68.276325
10
6.601695
20
-67.931894
10
6.898700
20
-67.634893
10
7.141499
20
-67.392097
10
7.323316
20
-67.210282
10
7.437375
20
-67.096225
10
7.476900
20
-67.056700
10
7.437061
20
-67.016861
10
7.322096
20
-66.901896
10
7.138835
20
-66.718635
10
6.894107
20
-66.473907
10
6.594743
20
-66.174543
10
6.247572
20
-65.827372
10
5.859423
20
-65.439223
10
5.437126
20
-65.016926
10
4.987511
20
-64.567311
10
4.517406
20
-64.097206
10
4.033643
20
-63.613443
10
3.543050
20
-63.122850
10
3.052457
20
-62.632257
10
2.568694
20
-62.148494
10
2.098589
20
-61.678389
10
1.648974
20
-61.228774
10
1.226677
20
-60.806477
10
0.838528
20
-60.418328
10
0.491357
20
-60.071157
10
0.191993
20
-59.771793
10
-0.052735
20
-59.527065
10
-0.235996
20
-59.343804
10
-0.350961
20
-59.228839
10
-0.390800
20
-59.189000
10
-0.430325
20
-59.228525
10
-0.544384
20
-59.342584
10
-0.726201
20
-59.524401
10
-0.969000
20
-59.767200
10
-1.266005
20
-60.064205
10
-1.610441
20
-60.408641
10
-1.995531
20
-60.793731
10
-2.414500
20
-61.212700
10
-2.860572
20
-61.658772
10
-3.326972
20
-62.125172
10
-3.806923
20
-62.605123
10
-4.293650
20
-63.091850
10
-4.780377
20
-63.578577
10
-5.260328
20
-64.058528
10
-5.726728
20
-64.524928
10
-6.172800
20
-64.971000
10
-6.591769
20
-65.389969
10
-6.976859
20
-65.775059
10
-7.321295
20
-66.119495
10
-7.618300
20
-66.416500
10
-7.861099
20
-66.659299
10
-8.042916
20
-66.841116
10
-8.156975
20
-66.955175
10
-8.196500
20
-66.994700
10
-8.156661
20
-67.034539
10
-8.041696
20
-67.149502
10
-7.858435
20
-67.332761
10
-7.613707
20
-67.577485
10
-7.314343
20
-67.876846
10
-6.967172
20
-68.224012
10
-6.579023
20
-68.612157
10
-6.156726
20
-69.034448
10
-5.707111
20
-69.484058
10
-5.237006
20
-69.954156
10
-4.753243
20
-70.437913
10
-4.262650
20
-70.928500
10
-3.772057
20
-71.419087
10
-3.288294
20
-71.902844
10
-2.818189
20
-72.372942
10
-2.368574
20
-72.822552
10
-1.946277
20
-73.244843
10
-1.558128
20
-73.632987
10
-1.210957
20
-73.980154
10
-0.911593
20
-74.279515
10
-0.666865
20
-74.524239
10
-0.483604
20
-74.707498
10
-0.368639
20
-74.822461
0
LWPOLYLINE
8
0
90
96
70
1
10
9.849600
20
-38.553500
10
9.993877
20
-38.409223
10
10.410218
20
-37.992882
10
11.073891
20
-37.329209
10
11.960163
20
-36.442937
10
13.044300
20
-35.358800
10
14.301569
20
-34.101531
10
15.707237
20
-32.695863
10
17.236570
20
-31.166530
10
18.864837
20
-29.538263
10
20.567303
20
-27.835797
10
22.319235
20
-26.083865
10
24.095900
20
-24.307200
10
25.872565
20
-22.530535
10
27.624497
20
-20.778603
10
29.326963
20
-19.076137
10
30.955230
20
-17.447870
10
32.484563
20
-15.918537
10
33.890231
20
-14.512869
10
35.147500
20
-13.255600
10
36.231637
20
-12.171463
10
37.117909
20
-11.285191
10
37.781582
20
-10.621518
10
38.197923
20
-10.205177
10
38.342200
20
-10.060900
10
38.316035
20
-10.034735
10
38.240531
20
-9.959231
10
38.120172
20
-9.838872
10
37.959444
20
-9.678144
10
37.762834
20
-9.481534
10
37.534825
20
-9.253525
10
37.279904
20
-8.998604
10
37.002556
20
-8.721256
10
36.707266
20
-8.425966
10
36.398519
20
-8.117219
10
36.080802
20
-7.799502
10
35.758600
20
-7.477300
10
35.436398
20
-7.155098
10
35.118681
20
-6.837381
10
34.809934
20
-6.528634
10
34.514644
20
-6.233344
10
34.237296
20
-5.955996
10
33.982375
20
-5.701075
10
33.754366
20
-5.473066
10
33.557756
20
-5.276456
10
33.397028
20
-5.115728
10
33.276669
20
-4.995369
10
33.201165
20
-4.919865
10
33.175000
20
-4.893700
10
33.030723
20
-5.037977
10
32.614382
20
-5.454320
10
31.950709
20
-6.117996
10
31.064437
20
-7.004270
10
29.980300
20
-8.088411
10
28.723031
20
-9.345684
10
27.317363
20
-10.751357
10
25.788030
20
-12.280696
10
24.159763
20
-13.908968
10
22.457297
20
-15.611440
10
20.705365
20
-17.363378
10
18.928700
20
-19.140050
10
17.152035
20
-20.916722
10
15.400103
20
-22.668660
10
13.697637
20
-24.371132
10
12.069370
20
-25.999404
10
10.540037
20
-27.528743
10
9.134369
20
-28.934416
10
7.877100
20
-30.191689
10
6.792963
20
-31.275830
10
5.906691
20
-32.162104
10
5.243018
20
-32.825780
10
4.826677
20
-33.242123
10
4.682400
20
-33.386400
10
4.708565
20
-33.412564
10
4.784069
20
-33.488067
10
4.904428
20
-33.608424
10
5.065156
20
-33.769148
10
5.261766
20
-33.965755
10
5.489775
20
-34.193759
10
5.744696
20
-34.448676
10
6.022044
20
-34.726019
10
6.317334
20
-35.021303
10
6.626081
20
-35.330043
10
6.943798
20
-35.647754
10
7.266000
20
-35.969950
10
7.588202
20
-36.292146
10
7.905919
20
-36.609857
10
8.214666
20
-36.918597
10
8.509956
20
-37.213881
10
8.787304
20
-37.491224
10
9.042225
20
-37.746141
10
9.270234
20
-37.974145
10
9.466844
20
-38.170752
10
9.627572
20
-38.331476
10
9.747931
20
-38.451833
10
9.823435
20
-38.527336
0
LWPOLYLINE
8
0
90
96
70
1
10
-16.978000
20
-32.331300
10
-15.929868
20
-33.379426
10
-13.098347
20
-36.210931
10
-8.952750
20
-40.356504
10
-3.962389
20
-45.346835
10
1.403421
20
-50.712615
10
6.675369
20
-55.984532
10
11.384142
20
-60.693278
10
15.060426
20
-64.369541
10
17.234909
20
-66.544011
10
17.531967
20
-67.024133
10
16.582316
20
-67.973784
10
14.799063
20
-69.757037
10
12.427385
20
-72.128715
10
9.712460
20
-74.843640
10
6.899464
20
-77.656636
10
4.233574
20
-80.322526
10
1.959967
20
-82.596133
10
0.323820
20
-84.232280
10
-0.429690
20
-84.985790
10
-0.808572
20
-84.653328
10
-2.121093
20
-83.340807
10
-4.169148
20
-81.292752
10
-6.707560
20
-78.754340
10
-9.491150
20
-75.970750
10
-12.274740
20
-73.187160
10
-14.813152
20
-70.648748
10
-16.861207
20
-68.600693
10
-18.173728
20
-67.288172
10
-18.512784
20
-66.915884
10
-17.973337
20
-66.376437
10
-16.802001
20
-65.205101
10
-15.174300
20
-63.577400
10
-13.265759
20
-61.668859
10
-11.251904
20
-59.655004
10
-9.308258
20
-57.711358
10
-7.610347
20
-56.013447
10
-6.333696
20
-54.736796
10
-5.653829
20
-54.056929
10
-5.646330
20
-53.933371
10
-5.971056
20
-53.608652
10
-6.520052
20
-53.059666
10
-7.223234
20
-52.356497
10
-8.010518
20
-51.569228
10
-8.811819
20
-50.767943
10
-9.557053
20
-50.022724
10
-10.176134
20
-49.403655
10
-10.598978
20
-48.980819
10
-10.755500
20
-48.824300
10
-11.304028
20
-49.372828
10
-12.785872
20
-50.854672
10
-14.955423
20
-53.024223
10
-17.567071
20
-55.635871
10
-20.375207
20
-58.444007
10
-23.134221
20
-61.203021
10
-25.598503
20
-63.667303
10
-27.522444
20
-65.591244
10
-28.660435
20
-66.729235
10
-28.719937
20
-67.076462
10
-27.227358
20
-68.569031
10
-24.424597
20
-71.371772
10
-20.697002
20
-75.099340
10
-16.429921
20
-79.366392
10
-12.008701
20
-83.787581
10
-7.818689
20
-87.977563
10
-4.245233
20
-91.550994
10
-1.673681
20
-94.122528
10
-0.489380
20
-95.306821
10
0.106109
20
-94.784293
10
2.168995
20
-92.721414
10
5.387920
20
-89.502501
10
9.377537
20
-85.512898
10
13.752500
20
-81.137950
10
18.127463
20
-76.763002
10
22.117080
20
-72.773399
10
25.336005
20
-69.554486
10
27.398891
20
-67.491607
10
27.906838
20
-66.881536
10
26.249119
20
-65.223767
10
22.649603
20
-61.624143
10
17.647678
20
-56.622067
10
11.782732
20
-50.756944
10
5.594153
20
-44.568179
10
-0.378670
20
-38.595175
10
-5.596350
20
-33.377338
10
-9.519499
20
-29.454070
10
-11.608728
20
-27.364778
10
-11.868138
20
-27.221438
10
-12.192907
20
-27.546207
10
-12.741978
20
-28.095278
10
-13.445256
20
-28.798556
10
-14.232647
20
-29.585947
10
-15.034056
20
-30.387356
10
-15.779390
20
-31.132690
10
-16.398555
20
-31.751855
10
-16.821456
20
-32.174756
0
LWPOLYLINE
8
0
90
96
70
1
10
-0.093900
20
74.862300
10
-0.133423
20
74.822777
10
-0.247477
20
74.708723
10
-0.429284
20
74.526916
10
-0.672070
20
74.284130
10
-0.969060
20
73.987140
10
-1.313478
20
73.642722
10
-1.698549
20
73.257651
10
-2.117496
20
72.838704
10
-2.563546
20
72.392654
10
-3.029921
20
71.926279
10
-3.509848
20
71.446352
10
-3.996550
20
70.959650
10
-4.483252
20
70.472948
10
-4.963179
20
69.993021
10
-5.429554
20
69.526646
10
-5.875604
20
69.080596
10
-6.294551
20
68.661649
10
-6.679622
20
68.276578
10
-7.024040
20
67.932160
10
-7.321030
20
67.635170
10
-7.563816
20
67.392384
10
-7.745623
20
67.210577
10
-7.859677
20
67.096523
10
-7.899200
20
67.057000
10
-7.859048
20
67.016848
10
-7.743180
20
66.900980
10
-7.558479
20
66.716279
10
-7.311830
20
66.469630
10
-7.010114
20
66.167914
10
-6.660216
20
65.818016
10
-6.269018
20
65.426818
10
-5.843404
20
65.001204
10
-5.390257
20
64.548057
10
-4.916460
20
64.074260
10
-4.428897
20
63.586697
10
-3.934450
20
63.092250
10
-3.440003
20
62.597803
10
-2.952440
20
62.110240
10
-2.478643
20
61.636443
10
-2.025496
20
61.183296
10
-1.599882
20
60.757682
10
-1.208684
20
60.366484
10
-0.858786
20
60.016586
10
-0.557070
20
59.714870
10
-0.310421
20
59.468221
10
-0.125720
20
59.283520
10
-0.009852
20
59.167652
10
0.030300
20
59.127500
10
0.069823
20
59.167023
10
0.183877
20
59.281077
10
0.365684
20
59.462884
10
0.608470
20
59.705670
10
0.905460
20
60.002660
10
1.249878
20
60.347078
10
1.634949
20
60.732149
10
2.053896
20
61.151096
10
2.499946
20
61.597146
10
2.966321
20
62.063521
10
3.446248
20
62.543448
10
3.932950
20
63.030150
10
4.419652
20
63.516852
10
4.899579
20
63.996779
10
5.365954
20
64.463154
10
5.812004
20
64.909204
10
6.230951
20
65.328151
10
6.616022
20
65.713222
10
6.960440
20
66.057640
10
7.257430
20
66.354630
10
7.500216
20
66.597416
10
7.682023
20
66.779223
10
7.796077
20
66.893277
10
7.835600
20
66.932800
10
7.795448
20
66.972952
10
7.679580
20
67.088820
10
7.494879
20
67.273521
10
7.248230
20
67.520170
10
6.946514
20
67.821886
10
6.596616
20
68.171784
10
6.205418
20
68.562982
10
5.779804
20
68.988596
10
5.326657
20
69.441743
10
4.852860
20
69.915540
10
4.365297
20
70.403103
10
3.870850
20
70.897550
10
3.376403
20
71.391997
10
2.888840
20
71.879560
10
2.415043
20
72.353357
10
1.961896
20
72.806504
10
1.536282
20
73.232118
10
1.145084
20
73.623316
10
0.795186
20
73.973214
10
0.493470
20
74.274930
10
0.246821
20
74.521579
10
0.062120
20
74.706280
10
-0.053748
20
74.822148
0
LWPOLYLINE
8
0
90
93
70
1
10
15.047000
20
-43.751200
10
18.944505
20
-47.648655
10
27.361806
20
-56.065846
10
35.386081
20
-64.090018
10
38.032730
20
-67.128370
10
29.771634
20
-75.389466
10
15.280287
20
-89.880813
10
2.756388
20
-102.404712
10
-1.211653
20
-104.855447
10
-10.988979
20
-95.078121
10
-25.669132
20
-80.397968
10
-37.080734
20
-68.986366
10
-38.011647
20
-66.057947
10
-31.313625
20
-59.359925
10
-22.448171
20
-50.494471
10
-16.341267
20
-44.387567
10
-16.236819
20
-43.342889
10
-18.250762
20
-41.328978
10
-20.641310
20
-38.938467
10
-22.063445
20
-37.516355
10
-24.678996
20
-40.032207
10
-32.483420
20
-47.836665
10
-40.869781
20
-56.223063
10
-44.988603
20
-60.341903
10
-50.812453
20
-54.532878
10
-64.190211
20
-41.155192
10
-77.252406
20
-28.093067
10
-82.154622
20
-23.057522
10
-77.442776
20
-18.345676
10
-68.790162
20
-9.693062
10
-61.122739
20
-2.025639
10
-59.330422
20
0.472122
10
-65.003767
20
6.145467
10
-73.829699
20
14.971399
10
-80.882301
20
22.024001
10
-80.847592
20
24.736312
10
-70.275087
20
35.308845
10
-55.861915
20
49.722055
10
-45.609466
20
59.974531
10
-42.940736
20
59.593129
10
-35.722623
20
52.374985
10
-26.928216
20
43.580541
10
-21.483434
20
38.135735
10
-20.629275
20
38.467825
10
-18.677715
20
40.419385
10
-16.528994
20
42.568106
10
-15.415366
20
43.681734
10
-18.771133
20
47.052433
10
-27.029600
20
55.310900
10
-35.288067
20
63.569367
10
-38.601633
20
66.982267
10
-31.193118
20
74.390782
10
-16.898553
20
88.685347
10
-3.915616
20
101.668284
10
0.463569
20
105.180731
10
9.502998
20
96.141302
10
24.103475
20
81.540825
10
36.086988
20
69.557312
10
37.914828
20
66.321328
10
31.603139
20
60.009639
10
22.729994
20
51.136494
10
16.221269
20
44.627769
10
15.739577
20
43.418323
10
17.656426
20
41.501474
10
20.055256
20
39.102644
10
21.597233
20
37.560667
10
21.693100
20
37.464800
10
24.795653
20
40.567340
10
32.951626
20
48.723278
10
41.304634
20
57.076250
10
44.948453
20
60.695947
10
51.659630
20
53.984770
10
65.324304
20
40.320096
10
78.040774
20
27.603626
10
82.038713
20
23.240513
10
76.830398
20
18.032198
10
68.075436
20
9.277236
10
60.699726
20
1.901526
10
59.551029
20
-0.393227
10
65.641591
20
-6.483763
10
74.483322
20
-15.325455
10
81.163420
20
-22.005524
10
80.297708
20
-24.863392
10
69.287492
20
-35.873608
10
55.123691
20
-50.037409
10
45.690268
20
-59.470832
10
43.034945
20
-58.279454
10
35.529497
20
-50.774037
10
26.844976
20
-42.089554
10
21.894183
20
-37.138783
10
20.951594
20
-37.846606
10
18.622085
20
-40.176115
10
16.178476
20
-42.619724
0
LWPOLYLINE
8
0
90
96
70
1
10
-5.229100
20
33.510400
10
-5.255265
20
33.536565
10
-5.330771
20
33.612071
10
-5.451132
20
33.732432
10
-5.611863
20
33.893163
10
-5.808478
20
34.089778
10
-6.036491
20
34.317791
10
-6.291417
20
34.572717
10
-6.568770
20
34.850070
10
-6.864066
20
35.145366
10
-7.172818
20
35.454118
10
-7.490541
20
35.771841
10
-7.812750
20
36.094050
10
-8.134959
20
36.416259
10
-8.452682
20
36.733982
10
-8.761434
20
37.042734
10
-9.056730
20
37.338030
10
-9.334083
20
37.615383
10
-9.589009
20
37.870309
10
-9.817022
20
38.098322
10
-10.013637
20
38.294937
10
-10.174368
20
38.455668
10
-10.294729
20
38.576029
10
-10.370235
20
38.651535
10
-10.396400
20
38.677700
10
-10.538850
20
38.535250
10
-10.949919
20
38.124179
10
-11.605188
20
37.468907
10
-12.480237
20
36.593856
10
-13.550646
20
35.523443
10
-14.791994
20
34.282091
10
-16.179862
20
32.894218
10
-17.689830
20
31.384244
10
-19.297477
20
29.776591
10
-20.978385
20
28.095677
10
-22.708132
20
26.365924
10
-24.462300
20
24.611750
10
-26.216468
20
22.857576
10
-27.946215
20
21.127823
10
-29.627123
20
19.446909
10
-31.234770
20
17.839256
10
-32.744738
20
16.329282
10
-34.132606
20
14.941409
10
-35.373954
20
13.700057
10
-36.444363
20
12.629644
10
-37.319412
20
11.754593
10
-37.974681
20
11.099321
10
-38.385750
20
10.688250
10
-38.528200
20
10.545800
10
-38.502035
20
10.519635
10
-38.426529
20
10.444129
10
-38.306168
20
10.323768
10
-38.145437
20
10.163037
10
-37.948822
20
9.966422
10
-37.720809
20
9.738409
10
-37.465883
20
9.483483
10
-37.188530
20
9.206130
10
-36.893234
20
8.910834
10
-36.584482
20
8.602082
10
-36.266759
20
8.284359
10
-35.944550
20
7.962150
10
-35.622341
20
7.639941
10
-35.304618
20
7.322218
10
-34.995866
20
7.013466
10
-34.700570
20
6.718170
10
-34.423217
20
6.440817
10
-34.168291
20
6.185891
10
-33.940278
20
5.957878
10
-33.743663
20
5.761263
10
-33.582932
20
5.600532
10
-33.462571
20
5.480171
10
-33.387065
20
5.404665
10
-33.360900
20
5.378500
10
-33.218450
20
5.520950
10
-32.807381
20
5.932021
10
-32.152112
20
6.587293
10
-31.277063
20
7.462344
10
-30.206654
20
8.532757
10
-28.965306
20
9.774109
10
-27.577438
20
11.161982
10
-26.067470
20
12.671956
10
-24.459823
20
14.279609
10
-22.778915
20
15.960523
10
-21.049168
20
17.690276
10
-19.295000
20
19.444450
10
-17.540832
20
21.198624
10
-15.811085
20
22.928377
10
-14.130177
20
24.609291
10
-12.522530
20
26.216944
10
-11.012562
20
27.726918
10
-9.624694
20
29.114791
10
-8.383346
20
30.356143
10
-7.312937
20
31.426556
10
-6.437888
20
32.301607
10
-5.782619
20
32.956879
10
-5.371550
20
33.367950
0
LWPOLYLINE
8
0
90
96
70
1
10
0.688500
20
15.963800
10
0.716686
20
15.994499
10
0.798022
20
16.083089
10
0.927677
20
16.224307
10
1.100819
20
16.412889
10
1.312615
20
16.643573
10
1.558234
20
16.911097
10
1.832845
20
17.210197
10
2.131615
20
17.535611
10
2.449712
20
17.882076
10
2.782305
20
18.244330
10
3.124562
20
18.617108
10
3.471650
20
18.995150
10
3.818738
20
19.373192
10
4.160995
20
19.745970
10
4.493588
20
20.108224
10
4.811685
20
20.454689
10
5.110455
20
20.780103
10
5.385066
20
21.079203
10
5.630685
20
21.346727
10
5.842481
20
21.577411
10
6.015623
20
21.765993
10
6.145278
20
21.907211
10
6.226614
20
21.995801
10
6.254800
20
22.026500
10
6.222811
20
22.058489
10
6.130499
20
22.150801
10
5.983349
20
22.297951
10
5.786844
20
22.494456
10
5.546469
20
22.734831
10
5.267706
20
23.013594
10
4.956041
20
23.325259
10
4.616956
20
23.664344
10
4.255935
20
24.025365
10
3.878463
20
24.402837
10
3.490024
20
24.791276
10
3.096100
20
25.185200
10
2.702176
20
25.579124
10
2.313737
20
25.967563
10
1.936265
20
26.345035
10
1.575244
20
26.706056
10
1.236159
20
27.045141
10
0.924494
20
27.356806
10
0.645731
20
27.635569
10
0.405356
20
27.875944
10
0.208851
20
28.072449
10
0.061701
20
28.219599
10
-0.030611
20
28.311911
10
-0.062600
20
28.343900
10
-0.092043
20
28.314457
10
-0.177006
20
28.229494
10
-0.312442
20
28.094058
10
-0.493304
20
27.913196
10
-0.714544
20
27.691956
10
-0.971116
20
27.435384
10
-1.257971
20
27.148529
10
-1.570063
20
26.836437
10
-1.902344
20
26.504156
10
-2.249767
20
26.156733
10
-2.607285
20
25.799215
10
-2.969850
20
25.436650
10
-3.332415
20
25.074085
10
-3.689933
20
24.716567
10
-4.037356
20
24.369144
10
-4.369637
20
24.036863
10
-4.681729
20
23.724771
10
-4.968584
20
23.437916
10
-5.225156
20
23.181344
10
-5.446396
20
22.960104
10
-5.627258
20
22.779242
10
-5.762694
20
22.643806
10
-5.847657
20
22.558843
10
-5.877100
20
22.529400
10
-5.843854
20
22.496154
10
-5.747916
20
22.400216
10
-5.594984
20
22.247284
10
-5.390759
20
22.043059
10
-5.140940
20
21.793240
10
-4.851225
20
21.503525
10
-4.527314
20
21.179614
10
-4.174907
20
20.827207
10
-3.799703
20
20.452003
10
-3.407401
20
20.059701
10
-3.003700
20
19.656000
10
-2.594300
20
19.246600
10
-2.184900
20
18.837200
10
-1.781199
20
18.433499
10
-1.388897
20
18.041197
10
-1.013693
20
17.665993
10
-0.661286
20
17.313586
10
-0.337375
20
16.989675
10
-0.047660
20
16.699960
10
0.202159
20
16.450141
10
0.406384
20
16.245916
10
0.559316
20
16.092984
10
0.655254
20
15.997046
0
LWPOLYLINE
8
0
90
96
70
1
10
17.342000
20
-10.704300
10
17.199071
20
-10.561371
10
16.786619
20
-10.148919
10
16.129147
20
-9.491447
10
15.251156
20
-8.613456
10
14.177148
20
-7.539448
10
12.931625
20
-6.293925
10
11.539090
20
-4.901390
10
10.024044
20
-3.386344
10
8.410991
20
-1.773291
10
6.724431
20
-0.086731
10
4.988866
20
1.648834
10
3.228800
20
3.408900
10
1.468734
20
5.168966
10
-0.266831
20
6.904531
10
-1.953391
20
8.591091
10
-3.566444
20
10.204144
10
-5.081490
20
11.719190
10
-6.474025
20
13.111725
10
-7.719548
20
14.357248
10
-8.793556
20
15.431256
10
-9.671547
20
16.309247
10
-10.329019
20
16.966719
10
-10.741471
20
17.379171
10
-10.884400
20
17.522100
10
-10.912990
20
17.493510
10
-10.995494
20
17.411006
10
-11.127010
20
17.279490
10
-11.302637
20
17.103863
10
-11.517474
20
16.889026
10
-11.766619
20
16.639881
10
-12.045171
20
16.361329
10
-12.348230
20
16.058270
10
-12.670893
20
15.735607
10
-13.008260
20
15.398240
10
-13.355429
20
15.051071
10
-13.707500
20
14.699000
10
-14.059571
20
14.346929
10
-14.406740
20
13.999760
10
-14.744107
20
13.662393
10
-15.066770
20
13.339730
10
-15.369829
20
13.036671
10
-15.648381
20
12.758119
10
-15.897526
20
12.508974
10
-16.112363
20
12.294137
10
-16.287990
20
12.118510
10
-16.419506
20
11.986994
10
-16.502010
20
11.904490
10
-16.530600
20
11.875900
10
-16.387671
20
11.732971
10
-15.975219
20
11.320519
10
-15.317747
20
10.663047
10
-14.439756
20
9.785056
10
-13.365748
20
8.711048
10
-12.120225
20
7.465525
10
-10.727690
20
6.072990
10
-9.212644
20
4.557944
10
-7.599591
20
2.944891
10
-5.913031
20
1.258331
10
-4.177466
20
-0.477234
10
-2.417400
20
-2.237300
10
-0.657334
20
-3.997366
10
1.078231
20
-5.732931
10
2.764791
20
-7.419491
10
4.377844
20
-9.032544
10
5.892890
20
-10.547590
10
7.285425
20
-11.940125
10
8.530948
20
-13.185648
10
9.604956
20
-14.259656
10
10.482947
20
-15.137647
10
11.140419
20
-15.795119
10
11.552871
20
-16.207571
10
11.695800
20
-16.350500
10
11.724390
20
-16.321910
10
11.806894
20
-16.239406
10
11.938410
20
-16.107890
10
12.114037
20
-15.932263
10
12.328874
20
-15.717426
10
12.578019
20
-15.468281
10
12.856571
20
-15.189729
10
13.159630
20
-14.886670
10
13.482293
20
-14.564007
10
13.819660
20
-14.226640
10
14.166829
20
-13.879471
10
14.518900
20
-13.527400
10
14.870971
20
-13.175329
10
15.218140
20
-12.828160
10
15.555507
20
-12.490793
10
15.878170
20
-12.168130
10
16.181229
20
-11.865071
10
16.459781
20
-11.586519
10
16.708926
20
-11.337374
10
16.923763
20
-11.122537
10
17.099390
20
-10.946910
10
17.230906
20
-10.815394
10
17.313410
20
-10.732890
0
LWPOLYLINE
8
0
90
96
70
1
10
-21.825500
20
6.581000
10
-21.857750
20
6.548750
10
-21.950816
20
6.455686
10
-22.099168
20
6.307336
10
-22.297278
20
6.109230
10
-22.539617
20
5.866894
10
-22.820656
20
5.585859
10
-23.134868
20
5.271653
10
-23.476722
20
4.929804
10
-23.840691
20
4.565840
10
-24.221247
20
4.185291
10
-24.612859
20
3.793685
10
-25.010000
20
3.396550
10
-25.407141
20
2.999415
10
-25.798753
20
2.607809
10
-26.179309
20
2.227260
10
-26.543278
20
1.863296
10
-26.885132
20
1.521447
10
-27.199344
20
1.207241
10
-27.480383
20
0.926206
10
-27.722722
20
0.683870
10
-27.920832
20
0.485764
10
-28.069184
20
0.337414
10
-28.162250
20
0.244350
10
-28.194500
20
0.212100
10
-28.162510
20
0.180111
10
-28.070197
20
0.087799
10
-27.923045
20
-0.059351
10
-27.726537
20
-0.255856
10
-27.486158
20
-0.496231
10
-27.207391
20
-0.774994
10
-26.895720
20
-1.086659
10
-26.556630
20
-1.425744
10
-26.195604
20
-1.786765
10
-25.818126
20
-2.164237
10
-25.429680
20
-2.552676
10
-25.035750
20
-2.946600
10
-24.641820
20
-3.340524
10
-24.253374
20
-3.728963
10
-23.875896
20
-4.106435
10
-23.514870
20
-4.467456
10
-23.175780
20
-4.806541
10
-22.864109
20
-5.118206
10
-22.585342
20
-5.396969
10
-22.344963
20
-5.637344
10
-22.148455
20
-5.833849
10
-22.001303
20
-5.980999
10
-21.908990
20
-6.073311
10
-21.877000
20
-6.105300
10
-21.844750
20
-6.073051
10
-21.751686
20
-5.979988
10
-21.603336
20
-5.831641
10
-21.405230
20
-5.633537
10
-21.162894
20
-5.391206
10
-20.881859
20
-5.110175
10
-20.567653
20
-4.795973
10
-20.225804
20
-4.454130
10
-19.861840
20
-4.090172
10
-19.481291
20
-3.709629
10
-19.089685
20
-3.318029
10
-18.692550
20
-2.920900
10
-18.295415
20
-2.523771
10
-17.903809
20
-2.132171
10
-17.523260
20
-1.751628
10
-17.159296
20
-1.387670
10
-16.817447
20
-1.045827
10
-16.503241
20
-0.731625
10
-16.222206
20
-0.450594
10
-15.979870
20
-0.208263
10
-15.781764
20
-0.010159
10
-15.633414
20
0.138188
10
-15.540350
20
0.231251
10
-15.508100
20
0.263500
10
-15.540089
20
0.295490
10
-15.632401
20
0.387803
10
-15.779551
20
0.534955
10
-15.976056
20
0.731463
10
-16.216431
20
0.971842
10
-16.495194
20
1.250609
10
-16.806859
20
1.562280
10
-17.145944
20
1.901370
10
-17.506965
20
2.262396
10
-17.884437
20
2.639874
10
-18.272876
20
3.028320
10
-18.666800
20
3.422250
10
-19.060724
20
3.816180
10
-19.449163
20
4.204626
10
-19.826635
20
4.582104
10
-20.187656
20
4.943130
10
-20.526741
20
5.282220
10
-20.838406
20
5.593891
10
-21.117169
20
5.872658
10
-21.357544
20
6.113037
10
-21.554049
20
6.309545
10
-21.701199
20
6.456697
10
-21.793511
20
6.549010
0
LWPOLYLINE
8
0
90
96
70
1
10
-10.310800
20
-4.933800
10
-10.994499
20
-5.617499
10
-12.884726
20
-7.507726
10
-15.740175
20
-10.363175
10
-19.319541
20
-13.942541
10
-23.381518
20
-18.004518
10
-27.684800
20
-22.307800
10
-31.988082
20
-26.611082
10
-36.050059
20
-30.673059
10
-39.629425
20
-34.252425
10
-42.484874
20
-37.107874
10
-44.375101
20
-38.998101
10
-45.058800
20
-39.681800
10
-45.387018
20
-39.353580
10
-46.294444
20
-38.446148
10
-47.665238
20
-37.075347
10
-49.383556
20
-35.357019
10
-51.333557
20
-33.407005
10
-53.399400
20
-31.341150
10
-55.465243
20
-29.275295
10
-57.415244
20
-27.325281
10
-59.133562
20
-25.606953
10
-60.504356
20
-24.236152
10
-61.411782
20
-23.328720
10
-61.740000
20
-23.000500
10
-61.485372
20
-22.745872
10
-60.781400
20
-22.041900
10
-59.717953
20
-20.978453
10
-58.384900
20
-19.645400
10
-56.872109
20
-18.132609
10
-55.269450
20
-16.529950
10
-53.666791
20
-14.927291
10
-52.154000
20
-13.414500
10
-50.820947
20
-12.081447
10
-49.757500
20
-11.018000
10
-49.053528
20
-10.314028
10
-48.798900
20
-10.059400
10
-48.900571
20
-9.957729
10
-49.181663
20
-9.676637
10
-49.606291
20
-9.252009
10
-50.138570
20
-8.719730
10
-50.742618
20
-8.115682
10
-51.382550
20
-7.475750
10
-52.022482
20
-6.835818
10
-52.626530
20
-6.231770
10
-53.158809
20
-5.699491
10
-53.583437
20
-5.274863
10
-53.864529
20
-4.993771
10
-53.966200
20
-4.892100
10
-54.322494
20
-5.248396
10
-55.307541
20
-6.233448
10
-56.795591
20
-7.721506
10
-58.660893
20
-9.586819
10
-60.777696
20
-11.703634
10
-63.020250
20
-13.946200
10
-65.262804
20
-16.188766
10
-67.379607
20
-18.305581
10
-69.244909
20
-20.170894
10
-70.732959
20
-21.658952
10
-71.718006
20
-22.644004
10
-72.074300
20
-23.000300
10
-71.541509
20
-23.533093
10
-70.068500
20
-25.006107
10
-67.843316
20
-27.231300
10
-65.054000
20
-30.020626
10
-61.888597
20
-33.186041
10
-58.535150
20
-36.539500
10
-55.181703
20
-39.892959
10
-52.016300
20
-43.058374
10
-49.226984
20
-45.847700
10
-47.001800
20
-48.072893
10
-45.528791
20
-49.545907
10
-44.996000
20
-50.078700
10
-44.210635
20
-49.293333
10
-42.039333
20
-47.122026
10
-38.759281
20
-43.841966
10
-34.647667
20
-39.730341
10
-29.981677
20
-35.064339
10
-25.038500
20
-30.121150
10
-20.095323
20
-25.177961
10
-15.429333
20
-20.511959
10
-11.317719
20
-16.400334
10
-8.037667
20
-13.120274
10
-5.866365
20
-10.948967
10
-5.081000
20
-10.163600
10
-5.183901
20
-10.060699
10
-5.468393
20
-9.776207
10
-5.898156
20
-9.346444
10
-6.436874
20
-8.807726
10
-7.048228
20
-8.196372
10
-7.695900
20
-7.548700
10
-8.343572
20
-6.901028
10
-8.954926
20
-6.289674
10
-9.493644
20
-5.750956
10
-9.923407
20
-5.321193
10
-10.207899
20
-5.036701
0
LWPOLYLINE
8
0
90
96
70
1
10
6.400900
20
-21.645400
10
6.368763
20
-21.613263
10
6.276027
20
-21.520527
10
6.128199
20
-21.372699
10
5.930789
20
-21.175289
10
5.689306
20
-20.933806
10
5.409259
20
-20.653759
10
5.096158
20
-20.340658
10
4.755511
20
-20.000011
10
4.392828
20
-19.637328
10
4.013617
20
-19.258117
10
3.623388
20
-18.867888
10
3.227650
20
-18.472150
10
2.831912
20
-18.076412
10
2.441683
20
-17.686183
10
2.062472
20
-17.306972
10
1.699789
20
-16.944289
10
1.359142
20
-16.603642
10
1.046041
20
-16.290541
10
0.765994
20
-16.010494
10
0.524511
20
-15.769011
10
0.327101
20
-15.571601
10
0.179273
20
-15.423773
10
0.086537
20
-15.331037
10
0.054400
20
-15.298900
10
0.020325
20
-15.332975
10
-0.078005
20
-15.431305
10
-0.234750
20
-15.588050
10
-0.444067
20
-15.797367
10
-0.700115
20
-16.053415
10
-0.997053
20
-16.350353
10
-1.329040
20
-16.682340
10
-1.690233
20
-17.043533
10
-2.074793
20
-17.428093
10
-2.476876
20
-17.830176
10
-2.890642
20
-18.243942
10
-3.310250
20
-18.663550
10
-3.729858
20
-19.083158
10
-4.143624
20
-19.496924
10
-4.545707
20
-19.899007
10
-4.930267
20
-20.283567
10
-5.291460
20
-20.644760
10
-5.623447
20
-20.976747
10
-5.920385
20
-21.273685
10
-6.176433
20
-21.529733
10
-6.385750
20
-21.739050
10
-6.542495
20
-21.895795
10
-6.640825
20
-21.994125
10
-6.674900
20
-22.028200
10
-6.642765
20
-22.060338
10
-6.550031
20
-22.153077
10
-6.402207
20
-22.300910
10
-6.204804
20
-22.498326
10
-5.963328
20
-22.739816
10
-5.683291
20
-23.019872
10
-5.370199
20
-23.332983
10
-5.029563
20
-23.673641
10
-4.666891
20
-24.036336
10
-4.287692
20
-24.415558
10
-3.897476
20
-24.805799
10
-3.501750
20
-25.201550
10
-3.106024
20
-25.597301
10
-2.715808
20
-25.987542
10
-2.336609
20
-26.366764
10
-1.973937
20
-26.729459
10
-1.633301
20
-27.070117
10
-1.320209
20
-27.383228
10
-1.040172
20
-27.663284
10
-0.798696
20
-27.904774
10
-0.601293
20
-28.102190
10
-0.453469
20
-28.250023
10
-0.360735
20
-28.342762
10
-0.328600
20
-28.374900
10
-0.294524
20
-28.340824
10
-0.196191
20
-28.242491
10
-0.039442
20
-28.085742
10
0.169881
20
-27.876419
10
0.425937
20
-27.620363
10
0.722884
20
-27.323416
10
1.054881
20
-26.991419
10
1.416085
20
-26.630215
10
1.800656
20
-26.245644
10
2.202751
20
-25.843549
10
2.616530
20
-25.429770
10
3.036150
20
-25.010150
10
3.455770
20
-24.590530
10
3.869549
20
-24.176751
10
4.271644
20
-23.774656
10
4.656215
20
-23.390085
10
5.017419
20
-23.028881
10
5.349416
20
-22.696884
10
5.646363
20
-22.399937
10
5.902419
20
-22.143881
10
6.111742
20
-21.934558
10
6.268491
20
-21.777809
10
6.366824
20
-21.679476
0
LWPOLYLINE
8
0
90
96
70
1
10
22.349300
20
-5.697000
10
22.378743
20
-5.667557
10
22.463706
20
-5.582594
10
22.599142
20
-5.447158
10
22.780004
20
-5.266296
10
23.001244
20
-5.045056
10
23.257816
20
-4.788484
10
23.544671
20
-4.501629
10
23.856763
20
-4.189537
10
24.189044
20
-3.857256
10
24.536467
20
-3.509833
10
24.893985
20
-3.152315
10
25.256550
20
-2.789750
10
25.619115
20
-2.427185
10
25.976633
20
-2.069667
10
26.324056
20
-1.722244
10
26.656337
20
-1.389963
10
26.968429
20
-1.077871
10
27.255284
20
-0.791016
10
27.511856
20
-0.534444
10
27.733096
20
-0.313204
10
27.913958
20
-0.132342
10
28.049394
20
0.003094
10
28.134357
20
0.088057
10
28.163800
20
0.117500
10
28.131663
20
0.149637
10
28.038927
20
0.242373
10
27.891099
20
0.390201
10
27.693689
20
0.587611
10
27.452206
20
0.829094
10
27.172159
20
1.109141
10
26.859058
20
1.422242
10
26.518411
20
1.762889
10
26.155728
20
2.125572
10
25.776517
20
2.504783
10
25.386288
20
2.895012
10
24.990550
20
3.290750
10
24.594812
20
3.686488
10
24.204583
20
4.076717
10
23.825372
20
4.455928
10
23.462689
20
4.818611
10
23.122042
20
5.159258
10
22.808941
20
5.472359
10
22.528894
20
5.752406
10
22.287411
20
5.993889
10
22.090001
20
6.191299
10
21.942173
20
6.339127
10
21.849437
20
6.431863
10
21.817300
20
6.464000
10
21.787857
20
6.434557
10
21.702894
20
6.349594
10
21.567458
20
6.214158
10
21.386596
20
6.033296
10
21.165356
20
5.812056
10
20.908784
20
5.555484
10
20.621929
20
5.268629
10
20.309837
20
4.956537
10
19.977556
20
4.624256
10
19.630133
20
4.276833
10
19.272615
20
3.919315
10
18.910050
20
3.556750
10
18.547485
20
3.194185
10
18.189967
20
2.836667
10
17.842544
20
2.489244
10
17.510263
20
2.156963
10
17.198171
20
1.844871
10
16.911316
20
1.558016
10
16.654744
20
1.301444
10
16.433504
20
1.080204
10
16.252642
20
0.899342
10
16.117206
20
0.763906
10
16.032243
20
0.678943
10
16.002800
20
0.649500
10
16.034937
20
0.617363
10
16.127673
20
0.524627
10
16.275501
20
0.376799
10
16.472911
20
0.179389
10
16.714394
20
-0.062094
10
16.994441
20
-0.342141
10
17.307542
20
-0.655242
10
17.648189
20
-0.995889
10
18.010872
20
-1.358572
10
18.390083
20
-1.737783
10
18.780312
20
-2.128012
10
19.176050
20
-2.523750
10
19.571788
20
-2.919488
10
19.962017
20
-3.309717
10
20.341228
20
-3.688928
10
20.703911
20
-4.051611
10
21.044558
20
-4.392258
10
21.357659
20
-4.705359
10
21.637706
20
-4.985406
10
21.879189
20
-5.226889
10
22.076599
20
-5.424299
10
22.224427
20
-5.572127
10
22.317163
20
-5.664863
0
LWPOLYLINE
8
0
90
96
70
1
10
10.867500
20
5.784900
10
11.540287
20
6.457687
10
13.400344
20
8.317744
10
16.210219
20
11.127619
10
19.732456
20
14.649856
10
23.729601
20
18.647001
10
27.964200
20
22.881600
10
32.198799
20
27.116199
10
36.195944
20
31.113344
10
39.718181
20
34.635581
10
42.528056
20
37.445456
10
44.388113
20
39.305513
10
45.060900
20
39.978300
10
45.385417
20
39.653783
10
46.282611
20
38.756589
10
47.637947
20
37.401253
10
49.336889
20
35.702311
10
51.264902
20
33.774298
10
53.307450
20
31.731750
10
55.349998
20
29.689202
10
57.278011
20
27.761189
10
58.976953
20
26.062247
10
60.332289
20
24.706911
10
61.229483
20
23.809717
10
61.554000
20
23.485200
10
61.299380
20
23.230580
10
60.595430
20
22.526630
10
59.532016
20
21.463216
10
58.199004
20
20.130204
10
56.686260
20
18.617460
10
55.083650
20
17.014850
10
53.481040
20
15.412240
10
51.968296
20
13.899496
10
50.635284
20
12.566484
10
49.571870
20
11.503070
10
48.867920
20
10.799120
10
48.613300
20
10.544500
10
48.714969
20
10.442833
10
48.996056
20
10.161752
10
49.420675
20
9.737141
10
49.952944
20
9.204881
10
50.556981
20
8.600857
10
51.196900
20
7.960950
10
51.836819
20
7.321043
10
52.440856
20
6.717019
10
52.973125
20
6.184759
10
53.397744
20
5.760148
10
53.678831
20
5.479067
10
53.780500
20
5.377400
10
54.136790
20
5.733690
10
55.121826
20
6.718726
10
56.609859
20
8.206759
10
58.475141
20
10.072041
10
60.591921
20
12.188821
10
62.834450
20
14.431350
10
65.076979
20
16.673879
10
67.193759
20
18.790659
10
69.059041
20
20.655941
10
70.547074
20
22.143974
10
71.532110
20
23.129010
10
71.888400
20
23.485300
10
71.359312
20
24.014384
10
69.896541
20
25.477144
10
67.686822
20
27.686847
10
64.916893
20
30.456756
10
61.773490
20
33.600135
10
58.443350
20
36.930250
10
55.113210
20
40.260365
10
51.969807
20
43.403744
10
49.199878
20
46.173653
10
46.990159
20
48.383356
10
45.527388
20
49.846116
10
44.998300
20
50.375200
10
44.223844
20
49.600746
10
42.082700
20
47.459607
10
38.848206
20
44.225122
10
34.793700
20
40.170626
10
30.192519
20
35.569456
10
25.318000
20
30.694950
10
20.443481
20
25.820444
10
15.842300
20
21.219274
10
11.787794
20
17.164778
10
8.553300
20
13.930293
10
6.412156
20
11.789154
10
5.637700
20
11.014700
10
5.740601
20
10.911799
10
6.025093
20
10.627307
10
6.454856
20
10.197544
10
6.993574
20
9.658826
10
7.604928
20
9.047472
10
8.252600
20
8.399800
10
8.900272
20
7.752128
10
9.511626
20
7.140774
10
10.050344
20
6.602056
10
10.480107
20
6.172293
10
10.764599
20
5.887801
0
LWPOLYLINE
8
0
90
88
70
1
10
16.557400
20
32.329000
10
15.294034
20
33.592366
10
11.921890
20
36.964510
10
7.067903
20
41.818497
10
1.359007
20
47.527393
10
-4.577865
20
53.464265
10
-10.115780
20
59.002180
10
-14.627803
20
63.514203
10
-17.487000
20
66.373400
10
-18.118445
20
67.108555
10
-17.129116
20
68.097884
10
-15.131128
20
70.095872
10
-12.450814
20
72.776186
10
-9.414503
20
75.812497
10
-6.348525
20
78.878475
10
-3.579212
20
81.647788
10
-1.432893
20
83.794107
10
-0.235898
20
84.991102
10
0.109108
20
84.930092
10
1.405896
20
83.633304
10
3.622348
20
81.416852
10
6.432131
20
78.607069
10
9.508914
20
75.530286
10
12.526363
20
72.512837
10
15.158147
20
69.881053
10
17.077933
20
67.961267
10
17.959390
20
67.079810
10
17.662716
20
66.736716
10
16.531639
20
65.605639
10
14.805902
20
63.879902
10
12.719122
20
61.793122
10
10.504914
20
59.578914
10
8.396896
20
57.470896
10
6.628684
20
55.702684
10
5.433893
20
54.507893
10
5.043570
20
54.114230
10
5.263932
20
53.893868
10
5.789589
20
53.368211
10
6.527256
20
52.630544
10
7.383648
20
51.774152
10
8.265482
20
50.892318
10
9.079472
20
50.078328
10
9.732335
20
49.425465
10
10.130785
20
49.027015
10
10.300892
20
49.040292
10
11.397303
20
50.136710
10
13.474407
20
52.213825
10
16.205305
20
54.944738
10
19.263100
20
58.002550
10
22.320895
20
61.060362
10
25.051793
20
63.791275
10
27.128897
20
65.868390
10
28.225308
20
66.964808
10
27.885860
20
67.487640
10
25.695096
20
69.678404
10
22.105520
20
73.267980
10
17.630030
20
77.743470
10
12.781523
20
82.591977
10
8.072898
20
87.300602
10
4.017051
20
91.356449
10
1.126881
20
94.246619
10
-0.084716
20
95.458216
10
-0.954503
20
94.606797
10
-3.577609
20
91.983691
10
-7.459637
20
88.101663
10
-12.087692
20
83.473608
10
-16.948881
20
78.612419
10
-21.530309
20
74.030991
10
-25.319083
20
70.242217
10
-27.802309
20
67.758991
10
-28.453375
20
67.005475
10
-26.508002
20
65.060102
10
-22.271038
20
60.823138
10
-16.462696
20
55.014796
10
-9.803191
20
48.355291
10
-3.012738
20
41.564838
10
3.188448
20
35.363652
10
8.080153
20
30.471947
10
10.942163
20
27.609937
10
11.390200
20
27.161900
10
11.491869
20
27.263567
10
11.917295
20
27.688985
10
12.588647
20
28.360324
10
13.412644
20
29.184305
10
14.296002
20
30.067646
10
15.145440
20
30.917067
10
15.867674
20
31.639287
10
16.369421
20
32.141025
0
ENDSEC
0
EOF